<svg xmlns="http://www.w3.org/2000/svg" xmlns:xlink="http://www.w3.org/1999/xlink" width="19.324" height="19.324" viewBox="0 0 19.324 19.324"><defs><style>.a{fill:none;}.b{clip-path:url(#a);}.c{fill:#404040;}</style><clipPath id="a"><rect class="a" width="19.324" height="19.324"/></clipPath></defs><g class="b"><path class="c" d="M25.095,14.5l-2.472-1.188a6.526,6.526,0,0,0-.378-.922l.91-2.585a.405.405,0,0,0-.1-.415L21.93,8.267a.405.405,0,0,0-.415-.1l-2.585.91a6.526,6.526,0,0,0-.922-.378L16.822,6.229A.4.4,0,0,0,16.459,6H14.865a.4.4,0,0,0-.362.229L13.315,8.7a6.526,6.526,0,0,0-.922.378L9.808,8.17a.405.405,0,0,0-.415.1L8.267,9.394a.405.405,0,0,0-.1.415l.91,2.585a6.526,6.526,0,0,0-.378.922L6.229,14.5A.4.4,0,0,0,6,14.865v1.594a.4.4,0,0,0,.229.362L8.7,18.009a6.525,6.525,0,0,0,.378.922l-.91,2.585a.405.405,0,0,0,.1.415l1.127,1.127a.405.405,0,0,0,.415.1l2.585-.91a6.526,6.526,0,0,0,.922.378L14.5,25.095a.4.4,0,0,0,.362.229h1.594a.4.4,0,0,0,.362-.229l1.188-2.472a6.526,6.526,0,0,0,.922-.378l2.585.91a.405.405,0,0,0,.415-.1l1.127-1.127a.405.405,0,0,0,.1-.415l-.91-2.585a6.525,6.525,0,0,0,.378-.922l2.472-1.188a.4.4,0,0,0,.229-.362V14.865A.4.4,0,0,0,25.095,14.5Zm-9.433,4.6A3.443,3.443,0,1,1,19.1,15.662,3.443,3.443,0,0,1,15.662,19.1Z" transform="translate(-6 -6)"/></g></svg>