<svg xmlns="http://www.w3.org/2000/svg" xmlns:xlink="http://www.w3.org/1999/xlink" width="50.849" height="15.106" viewBox="0 0 50.849 15.106"><defs><style>.a{fill:none;}.b{clip-path:url(#a);}.c{fill:#404040;}.d{fill:#3cbcb4;}</style><clipPath id="a"><rect class="a" width="50.849" height="15.106"/></clipPath></defs><g class="b"><g transform="translate(0 0)"><path class="c" d="M10.345.528l.005,2.241a.489.489,0,0,1-.537.541L6.9,3.318l.032,11.23a.489.489,0,0,1-.537.541L4.032,15.1a.489.489,0,0,1-.541-.537L3.458,3.329.549,3.337A.489.489,0,0,1,.008,2.8L0,.558A.489.489,0,0,1,.537.016L6.9,0,9.805-.01A.49.49,0,0,1,10.345.528Z" transform="translate(0 0.01)"/><path class="d" d="M131,33.1a5.711,5.711,0,1,1,5.728,5.673A5.649,5.649,0,0,1,131,33.1Zm8.186-.024a2.478,2.478,0,1,0-2.469,2.55A2.413,2.413,0,0,0,139.185,33.072Z" transform="translate(-122.138 -25.536)"/><path class="c" d="M315.761,31.428l.018,6.25a.49.49,0,0,1-.538.541l-2.069.006a.489.489,0,0,1-.541-.537V37.38a3.415,3.415,0,0,1-2.777,1.156,3.367,3.367,0,1,1-.019-6.724,4.392,4.392,0,0,1,2.782.812v-.973c0-1.056-.436-1.529-1.341-1.526a1.262,1.262,0,0,0-1.248.628c-.129.3-.235.474-.559.474l-2.112.006a.487.487,0,0,1-.541-.559c.271-2.328,2.253-3.518,4.451-3.525C313.637,27.145,315.753,28.518,315.761,31.428Zm-3.132,3.738c0-.668-.585-1.076-1.641-1.073-.992,0-1.464.457-1.463,1.082s.478,1.076,1.469,1.073C312.047,36.245,312.629,35.79,312.629,35.166Z" transform="translate(-285.569 -25.312)"/><path class="c" d="M470.963,34.871c.007,2.479-2.1,3.541-4.473,3.548-2.2.006-4.183-.98-4.449-3.263a.463.463,0,0,1,.516-.562l2.112-.006c.323,0,.432.171.583.451a1.234,1.234,0,0,0,1.231.578c.905,0,1.249-.306,1.247-.737,0-1.552-5.625-.113-5.637-4.294-.007-2.435,2.1-3.541,4.365-3.547,2,0,3.964.98,4.23,3.263a.463.463,0,0,1-.516.561l-2.112.006c-.323,0-.432-.171-.583-.474a1.036,1.036,0,0,0-1.015-.557c-.8,0-1.141.305-1.14.736C465.327,32.172,470.948,30.669,470.963,34.871Z" transform="translate(-430.78 -25.21)"/><path class="c" d="M603.541,9.81l.006,2.025a.49.49,0,0,1-.541.541l-1.185,0,.021,7.134a.489.489,0,0,1-.537.541l-2.155.007a.489.489,0,0,1-.541-.537l-.02-7.134H597.4a.489.489,0,0,1-.541-.537V9.833a.489.489,0,0,1,.537-.541l1.186,0-.009-2.909a.489.489,0,0,1,.537-.541l2.155-.008a.489.489,0,0,1,.541.537l.008,2.909,1.185,0A.489.489,0,0,1,603.541,9.81Z" transform="translate(-556.483 -5.435)"/><path class="d" d="M700.627,123.116l-.007-2.368a.489.489,0,0,1,.537-.541l2.368-.007a.489.489,0,0,1,.541.537l.007,2.368a.489.489,0,0,1-.537.541l-2.368.007A.488.488,0,0,1,700.627,123.116Z" transform="translate(-653.224 -112.068)"/></g></g></svg>